<?xml version="1.0" encoding="UTF-8"?>
<svg xmlns="http://www.w3.org/2000/svg" xmlns:xlink="http://www.w3.org/1999/xlink" width="144.965" height="72.682" viewBox="0 0 144.965 72.682">
<defs>
<clipPath id="clip-0">
<path clip-rule="nonzero" d="M 0 0 L 144.964844 0 L 144.964844 72.683594 L 0 72.683594 Z M 0 0 "/>
</clipPath>
<clipPath id="clip-1">
<path clip-rule="nonzero" d="M 56 69 L 60 69 L 60 72.683594 L 56 72.683594 Z M 56 69 "/>
</clipPath>
<clipPath id="clip-2">
<path clip-rule="nonzero" d="M 51 64 L 66 64 L 66 72.683594 L 51 72.683594 Z M 51 64 "/>
</clipPath>
<clipPath id="clip-3">
<path clip-rule="nonzero" d="M 85 69 L 89 69 L 89 72.683594 L 85 72.683594 Z M 85 69 "/>
</clipPath>
<clipPath id="clip-4">
<path clip-rule="nonzero" d="M 79 64 L 94 64 L 94 72.683594 L 79 72.683594 Z M 79 64 "/>
</clipPath>
<clipPath id="clip-5">
<path clip-rule="nonzero" d="M 141 41 L 144.964844 41 L 144.964844 45 L 141 45 Z M 141 41 "/>
</clipPath>
<clipPath id="clip-6">
<path clip-rule="nonzero" d="M 136 35 L 144.964844 35 L 144.964844 50 L 136 50 Z M 136 35 "/>
</clipPath>
</defs>
<path fill-rule="nonzero" fill="rgb(89.99939%, 89.99939%, 89.99939%)" fill-opacity="1" d="M 1.617188 0.199219 L 1.617188 14.371094 L 58.3125 71.066406 L 86.65625 71.066406 L 143.351562 42.71875 L 143.351562 0.199219 "/>
<g clip-path="url(#clip-0)">
<path fill="none" stroke-width="0.3985" stroke-linecap="butt" stroke-linejoin="miter" stroke="rgb(0%, 0%, 0%)" stroke-opacity="1" stroke-miterlimit="10" d="M 0.0001875 70.865781 L 0.0001875 56.693906 L 56.6955 -0.00140625 L 85.03925 -0.00140625 L 141.734563 28.34625 L 141.734563 70.865781 " transform="matrix(1, 0, 0, -1, 1.617, 71.065)"/>
</g>
<path fill-rule="nonzero" fill="rgb(0%, 0%, 0%)" fill-opacity="1" stroke-width="0.3985" stroke-linecap="butt" stroke-linejoin="miter" stroke="rgb(0%, 0%, 0%)" stroke-opacity="1" stroke-miterlimit="10" d="M 1.418156 56.693906 C 1.418156 57.475156 0.781438 58.111875 0.0001875 58.111875 C -0.781062 58.111875 -1.417781 57.475156 -1.417781 56.693906 C -1.417781 55.912656 -0.781062 55.275937 0.0001875 55.275937 C 0.781438 55.275937 1.418156 55.912656 1.418156 56.693906 Z M 1.418156 56.693906 " transform="matrix(1, 0, 0, -1, 1.617, 71.065)"/>
<path fill-rule="nonzero" fill="rgb(0%, 0%, 0%)" fill-opacity="1" stroke-width="0.3985" stroke-linecap="butt" stroke-linejoin="miter" stroke="rgb(0%, 0%, 0%)" stroke-opacity="1" stroke-miterlimit="10" d="M 29.765812 28.34625 C 29.765812 29.131406 29.129094 29.764219 28.347844 29.764219 C 27.562687 29.764219 26.929875 29.131406 26.929875 28.34625 C 26.929875 27.565 27.562687 26.928281 28.347844 26.928281 C 29.129094 26.928281 29.765812 27.565 29.765812 28.34625 Z M 29.765812 28.34625 " transform="matrix(1, 0, 0, -1, 1.617, 71.065)"/>
<g clip-path="url(#clip-1)">
<path fill-rule="nonzero" fill="rgb(0%, 0%, 0%)" fill-opacity="1" d="M 59.726562 71.066406 C 59.726562 70.28125 59.09375 69.648438 58.3125 69.648438 C 57.527344 69.648438 56.894531 70.28125 56.894531 71.066406 C 56.894531 71.847656 57.527344 72.480469 58.3125 72.480469 C 59.09375 72.480469 59.726562 71.847656 59.726562 71.066406 Z M 59.726562 71.066406 "/>
</g>
<g clip-path="url(#clip-2)">
<path fill="none" stroke-width="0.3985" stroke-linecap="butt" stroke-linejoin="miter" stroke="rgb(0%, 0%, 0%)" stroke-opacity="1" stroke-miterlimit="10" d="M 58.109563 -0.00140625 C 58.109563 0.78375 57.47675 1.416562 56.6955 1.416562 C 55.910344 1.416562 55.277531 0.78375 55.277531 -0.00140625 C 55.277531 -0.782656 55.910344 -1.415469 56.6955 -1.415469 C 57.47675 -1.415469 58.109563 -0.782656 58.109563 -0.00140625 Z M 58.109563 -0.00140625 " transform="matrix(1, 0, 0, -1, 1.617, 71.065)"/>
</g>
<g clip-path="url(#clip-3)">
<path fill-rule="nonzero" fill="rgb(0%, 0%, 0%)" fill-opacity="1" d="M 88.074219 71.066406 C 88.074219 70.28125 87.441406 69.648438 86.65625 69.648438 C 85.875 69.648438 85.238281 70.28125 85.238281 71.066406 C 85.238281 71.847656 85.875 72.480469 86.65625 72.480469 C 87.441406 72.480469 88.074219 71.847656 88.074219 71.066406 Z M 88.074219 71.066406 "/>
</g>
<g clip-path="url(#clip-4)">
<path fill="none" stroke-width="0.3985" stroke-linecap="butt" stroke-linejoin="miter" stroke="rgb(0%, 0%, 0%)" stroke-opacity="1" stroke-miterlimit="10" d="M 86.457219 -0.00140625 C 86.457219 0.78375 85.824406 1.416562 85.03925 1.416562 C 84.258 1.416562 83.621281 0.78375 83.621281 -0.00140625 C 83.621281 -0.782656 84.258 -1.415469 85.03925 -1.415469 C 85.824406 -1.415469 86.457219 -0.782656 86.457219 -0.00140625 Z M 86.457219 -0.00140625 " transform="matrix(1, 0, 0, -1, 1.617, 71.065)"/>
</g>
<path fill-rule="nonzero" fill="rgb(0%, 0%, 0%)" fill-opacity="1" stroke-width="0.3985" stroke-linecap="butt" stroke-linejoin="miter" stroke="rgb(0%, 0%, 0%)" stroke-opacity="1" stroke-miterlimit="10" d="M 114.804875 56.693906 C 114.804875 57.475156 114.168156 58.111875 113.386906 58.111875 C 112.605656 58.111875 111.968937 57.475156 111.968937 56.693906 C 111.968937 55.912656 112.605656 55.275937 113.386906 55.275937 C 114.168156 55.275937 114.804875 55.912656 114.804875 56.693906 Z M 114.804875 56.693906 " transform="matrix(1, 0, 0, -1, 1.617, 71.065)"/>
<g clip-path="url(#clip-5)">
<path fill-rule="nonzero" fill="rgb(0%, 0%, 0%)" fill-opacity="1" d="M 144.769531 42.71875 C 144.769531 41.933594 144.132812 41.300781 143.351562 41.300781 C 142.566406 41.300781 141.933594 41.933594 141.933594 42.71875 C 141.933594 43.5 142.566406 44.136719 143.351562 44.136719 C 144.132812 44.136719 144.769531 43.5 144.769531 42.71875 Z M 144.769531 42.71875 "/>
</g>
<g clip-path="url(#clip-6)">
<path fill="none" stroke-width="0.3985" stroke-linecap="butt" stroke-linejoin="miter" stroke="rgb(0%, 0%, 0%)" stroke-opacity="1" stroke-miterlimit="10" d="M 143.152531 28.34625 C 143.152531 29.131406 142.515813 29.764219 141.734563 29.764219 C 140.949406 29.764219 140.316594 29.131406 140.316594 28.34625 C 140.316594 27.565 140.949406 26.928281 141.734563 26.928281 C 142.515813 26.928281 143.152531 27.565 143.152531 28.34625 Z M 143.152531 28.34625 " transform="matrix(1, 0, 0, -1, 1.617, 71.065)"/>
</g>
</svg>
