<?xml version="1.0" encoding="utf-8"?><!DOCTYPE svg PUBLIC "-//W3C//DTD SVG 1.1//EN" "http://www.w3.org/Graphics/SVG/1.1/DTD/svg11.dtd"><svg xmlns:xlink="http://www.w3.org/1999/xlink" xmlns="http://www.w3.org/2000/svg" id="map" viewBox="0 0 246 246" width="800" height="800" data-dot="6"><rect x="0" y="0" height="246" width="246" fill="#ffffff"/><defs/><g fill="#000000"><rect x="24" y="204" width="18" height="18" transform="rotate(-90,33,213)"/><path clip-rule="evenodd" class="svgeye" d="M 12 192v 42h 42v -42zM 18 198h 30v 30h -30z" transform="rotate(-90,33,213)"/><rect x="204" y="24" width="18" height="18" transform="rotate(90,213,33)"/><path clip-rule="evenodd" class="svgeye" d="M 192 12v 42h 42v -42zM 198 18h 30v 30h -30z" transform="rotate(90,213,33)"/><rect x="24" y="24" width="18" height="18" transform="rotate(0,33,33)"/><path clip-rule="evenodd" class="svgeye" d="M 12 12v 42h 42v -42zM 18 18h 30v 30h -30z" transform="rotate(0,33,33)"/><rect x="60" y="12" width="6" height="6" transform="rotate(0,63,15)"/><rect x="66" y="12" width="6" height="6" transform="rotate(0,69,15)"/><rect x="72" y="12" width="6" height="6" transform="rotate(0,75,15)"/><rect x="78" y="12" width="6" height="6" transform="rotate(0,81,15)"/><rect x="84" y="12" width="6" height="6" transform="rotate(0,87,15)"/><rect x="102" y="12" width="6" height="6" transform="rotate(0,105,15)"/><rect x="108" y="12" width="6" height="6" transform="rotate(0,111,15)"/><rect x="114" y="12" width="6" height="6" transform="rotate(0,117,15)"/><rect x="126" y="12" width="6" height="6" transform="rotate(0,129,15)"/><rect x="144" y="12" width="6" height="6" transform="rotate(0,147,15)"/><rect x="162" y="12" width="6" height="6" transform="rotate(0,165,15)"/><rect x="168" y="12" width="6" height="6" transform="rotate(0,171,15)"/><rect x="174" y="12" width="6" height="6" transform="rotate(0,177,15)"/><rect x="60" y="18" width="6" height="6" transform="rotate(0,63,21)"/><rect x="78" y="18" width="6" height="6" transform="rotate(0,81,21)"/><rect x="84" y="18" width="6" height="6" transform="rotate(0,87,21)"/><rect x="102" y="18" width="6" height="6" transform="rotate(0,105,21)"/><rect x="114" y="18" width="6" height="6" transform="rotate(0,117,21)"/><rect x="126" y="18" width="6" height="6" transform="rotate(0,129,21)"/><rect x="132" y="18" width="6" height="6" transform="rotate(0,135,21)"/><rect x="144" y="18" width="6" height="6" transform="rotate(0,147,21)"/><rect x="162" y="18" width="6" height="6" transform="rotate(0,165,21)"/><rect x="168" y="18" width="6" height="6" transform="rotate(0,171,21)"/><rect x="174" y="18" width="6" height="6" transform="rotate(0,177,21)"/><rect x="60" y="24" width="6" height="6" transform="rotate(0,63,27)"/><rect x="66" y="24" width="6" height="6" transform="rotate(0,69,27)"/><rect x="78" y="24" width="6" height="6" transform="rotate(0,81,27)"/><rect x="84" y="24" width="6" height="6" transform="rotate(0,87,27)"/><rect x="102" y="24" width="6" height="6" transform="rotate(0,105,27)"/><rect x="132" y="24" width="6" height="6" transform="rotate(0,135,27)"/><rect x="144" y="24" width="6" height="6" transform="rotate(0,147,27)"/><rect x="150" y="24" width="6" height="6" transform="rotate(0,153,27)"/><rect x="168" y="24" width="6" height="6" transform="rotate(0,171,27)"/><rect x="60" y="30" width="6" height="6" transform="rotate(0,63,33)"/><rect x="72" y="30" width="6" height="6" transform="rotate(0,75,33)"/><rect x="96" y="30" width="6" height="6" transform="rotate(0,99,33)"/><rect x="114" y="30" width="6" height="6" transform="rotate(0,117,33)"/><rect x="120" y="30" width="6" height="6" transform="rotate(0,123,33)"/><rect x="144" y="30" width="6" height="6" transform="rotate(0,147,33)"/><rect x="174" y="30" width="6" height="6" transform="rotate(0,177,33)"/><rect x="60" y="36" width="6" height="6" transform="rotate(0,63,39)"/><rect x="90" y="36" width="6" height="6" transform="rotate(0,93,39)"/><rect x="108" y="36" width="6" height="6" transform="rotate(0,111,39)"/><rect x="114" y="36" width="6" height="6" transform="rotate(0,117,39)"/><rect x="132" y="36" width="6" height="6" transform="rotate(0,135,39)"/><rect x="138" y="36" width="6" height="6" transform="rotate(0,141,39)"/><rect x="144" y="36" width="6" height="6" transform="rotate(0,147,39)"/><rect x="150" y="36" width="6" height="6" transform="rotate(0,153,39)"/><rect x="162" y="36" width="6" height="6" transform="rotate(0,165,39)"/><rect x="168" y="36" width="6" height="6" transform="rotate(0,171,39)"/><rect x="174" y="36" width="6" height="6" transform="rotate(0,177,39)"/><rect x="180" y="36" width="6" height="6" transform="rotate(0,183,39)"/><rect x="66" y="42" width="6" height="6" transform="rotate(0,69,45)"/><rect x="72" y="42" width="6" height="6" transform="rotate(0,75,45)"/><rect x="84" y="42" width="6" height="6" transform="rotate(0,87,45)"/><rect x="108" y="42" width="6" height="6" transform="rotate(0,111,45)"/><rect x="114" y="42" width="6" height="6" transform="rotate(0,117,45)"/><rect x="132" y="42" width="6" height="6" transform="rotate(0,135,45)"/><rect x="138" y="42" width="6" height="6" transform="rotate(0,141,45)"/><rect x="150" y="42" width="6" height="6" transform="rotate(0,153,45)"/><rect x="168" y="42" width="6" height="6" transform="rotate(0,171,45)"/><rect x="174" y="42" width="6" height="6" transform="rotate(0,177,45)"/><rect x="180" y="42" width="6" height="6" transform="rotate(0,183,45)"/><rect x="60" y="48" width="6" height="6" transform="rotate(0,63,51)"/><rect x="72" y="48" width="6" height="6" transform="rotate(0,75,51)"/><rect x="84" y="48" width="6" height="6" transform="rotate(0,87,51)"/><rect x="96" y="48" width="6" height="6" transform="rotate(0,99,51)"/><rect x="108" y="48" width="6" height="6" transform="rotate(0,111,51)"/><rect x="120" y="48" width="6" height="6" transform="rotate(0,123,51)"/><rect x="132" y="48" width="6" height="6" transform="rotate(0,135,51)"/><rect x="144" y="48" width="6" height="6" transform="rotate(0,147,51)"/><rect x="156" y="48" width="6" height="6" transform="rotate(0,159,51)"/><rect x="168" y="48" width="6" height="6" transform="rotate(0,171,51)"/><rect x="180" y="48" width="6" height="6" transform="rotate(0,183,51)"/><rect x="60" y="54" width="6" height="6" transform="rotate(0,63,57)"/><rect x="72" y="54" width="6" height="6" transform="rotate(0,75,57)"/><rect x="90" y="54" width="6" height="6" transform="rotate(0,93,57)"/><rect x="96" y="54" width="6" height="6" transform="rotate(0,99,57)"/><rect x="102" y="54" width="6" height="6" transform="rotate(0,105,57)"/><rect x="108" y="54" width="6" height="6" transform="rotate(0,111,57)"/><rect x="132" y="54" width="6" height="6" transform="rotate(0,135,57)"/><rect x="138" y="54" width="6" height="6" transform="rotate(0,141,57)"/><rect x="144" y="54" width="6" height="6" transform="rotate(0,147,57)"/><rect x="150" y="54" width="6" height="6" transform="rotate(0,153,57)"/><rect x="156" y="54" width="6" height="6" transform="rotate(0,159,57)"/><rect x="180" y="54" width="6" height="6" transform="rotate(0,183,57)"/><rect x="18" y="60" width="6" height="6" transform="rotate(0,21,63)"/><rect x="24" y="60" width="6" height="6" transform="rotate(0,27,63)"/><rect x="36" y="60" width="6" height="6" transform="rotate(0,39,63)"/><rect x="48" y="60" width="6" height="6" transform="rotate(0,51,63)"/><rect x="54" y="60" width="6" height="6" transform="rotate(0,57,63)"/><rect x="66" y="60" width="6" height="6" transform="rotate(0,69,63)"/><rect x="78" y="60" width="6" height="6" transform="rotate(0,81,63)"/><rect x="108" y="60" width="6" height="6" transform="rotate(0,111,63)"/><rect x="114" y="60" width="6" height="6" transform="rotate(0,117,63)"/><rect x="126" y="60" width="6" height="6" transform="rotate(0,129,63)"/><rect x="138" y="60" width="6" height="6" transform="rotate(0,141,63)"/><rect x="156" y="60" width="6" height="6" transform="rotate(0,159,63)"/><rect x="174" y="60" width="6" height="6" transform="rotate(0,177,63)"/><rect x="192" y="60" width="6" height="6" transform="rotate(0,195,63)"/><rect x="204" y="60" width="6" height="6" transform="rotate(0,207,63)"/><rect x="210" y="60" width="6" height="6" transform="rotate(0,213,63)"/><rect x="216" y="60" width="6" height="6" transform="rotate(0,219,63)"/><rect x="222" y="60" width="6" height="6" transform="rotate(0,225,63)"/><rect x="228" y="60" width="6" height="6" transform="rotate(0,231,63)"/><rect x="12" y="66" width="6" height="6" transform="rotate(0,15,69)"/><rect x="24" y="66" width="6" height="6" transform="rotate(0,27,69)"/><rect x="36" y="66" width="6" height="6" transform="rotate(0,39,69)"/><rect x="42" y="66" width="6" height="6" transform="rotate(0,45,69)"/><rect x="54" y="66" width="6" height="6" transform="rotate(0,57,69)"/><rect x="66" y="66" width="6" height="6" transform="rotate(0,69,69)"/><rect x="90" y="66" width="6" height="6" transform="rotate(0,93,69)"/><rect x="108" y="66" width="6" height="6" transform="rotate(0,111,69)"/><rect x="114" y="66" width="6" height="6" transform="rotate(0,117,69)"/><rect x="126" y="66" width="6" height="6" transform="rotate(0,129,69)"/><rect x="138" y="66" width="6" height="6" transform="rotate(0,141,69)"/><rect x="156" y="66" width="6" height="6" transform="rotate(0,159,69)"/><rect x="174" y="66" width="6" height="6" transform="rotate(0,177,69)"/><rect x="186" y="66" width="6" height="6" transform="rotate(0,189,69)"/><rect x="204" y="66" width="6" height="6" transform="rotate(0,207,69)"/><rect x="216" y="66" width="6" height="6" transform="rotate(0,219,69)"/><rect x="228" y="66" width="6" height="6" transform="rotate(0,231,69)"/><rect x="12" y="72" width="6" height="6" transform="rotate(0,15,75)"/><rect x="24" y="72" width="6" height="6" transform="rotate(0,27,75)"/><rect x="36" y="72" width="6" height="6" transform="rotate(0,39,75)"/><rect x="42" y="72" width="6" height="6" transform="rotate(0,45,75)"/><rect x="48" y="72" width="6" height="6" transform="rotate(0,51,75)"/><rect x="78" y="72" width="6" height="6" transform="rotate(0,81,75)"/><rect x="90" y="72" width="6" height="6" transform="rotate(0,93,75)"/><rect x="96" y="72" width="6" height="6" transform="rotate(0,99,75)"/><rect x="102" y="72" width="6" height="6" transform="rotate(0,105,75)"/><rect x="120" y="72" width="6" height="6" transform="rotate(0,123,75)"/><rect x="126" y="72" width="6" height="6" transform="rotate(0,129,75)"/><rect x="156" y="72" width="6" height="6" transform="rotate(0,159,75)"/><rect x="162" y="72" width="6" height="6" transform="rotate(0,165,75)"/><rect x="192" y="72" width="6" height="6" transform="rotate(0,195,75)"/><rect x="210" y="72" width="6" height="6" transform="rotate(0,213,75)"/><rect x="222" y="72" width="6" height="6" transform="rotate(0,225,75)"/><rect x="228" y="72" width="6" height="6" transform="rotate(0,231,75)"/><rect x="18" y="78" width="6" height="6" transform="rotate(0,21,81)"/><rect x="30" y="78" width="6" height="6" transform="rotate(0,33,81)"/><rect x="36" y="78" width="6" height="6" transform="rotate(0,39,81)"/><rect x="54" y="78" width="6" height="6" transform="rotate(0,57,81)"/><rect x="66" y="78" width="6" height="6" transform="rotate(0,69,81)"/><rect x="84" y="78" width="6" height="6" transform="rotate(0,87,81)"/><rect x="90" y="78" width="6" height="6" transform="rotate(0,93,81)"/><rect x="102" y="78" width="6" height="6" transform="rotate(0,105,81)"/><rect x="108" y="78" width="6" height="6" transform="rotate(0,111,81)"/><rect x="138" y="78" width="6" height="6" transform="rotate(0,141,81)"/><rect x="144" y="78" width="6" height="6" transform="rotate(0,147,81)"/><rect x="156" y="78" width="6" height="6" transform="rotate(0,159,81)"/><rect x="162" y="78" width="6" height="6" transform="rotate(0,165,81)"/><rect x="168" y="78" width="6" height="6" transform="rotate(0,171,81)"/><rect x="174" y="78" width="6" height="6" transform="rotate(0,177,81)"/><rect x="186" y="78" width="6" height="6" transform="rotate(0,189,81)"/><rect x="204" y="78" width="6" height="6" transform="rotate(0,207,81)"/><rect x="222" y="78" width="6" height="6" transform="rotate(0,225,81)"/><rect x="12" y="84" width="6" height="6" transform="rotate(0,15,87)"/><rect x="42" y="84" width="6" height="6" transform="rotate(0,45,87)"/><rect x="48" y="84" width="6" height="6" transform="rotate(0,51,87)"/><rect x="54" y="84" width="6" height="6" transform="rotate(0,57,87)"/><rect x="60" y="84" width="6" height="6" transform="rotate(0,63,87)"/><rect x="66" y="84" width="6" height="6" transform="rotate(0,69,87)"/><rect x="84" y="84" width="6" height="6" transform="rotate(0,87,87)"/><rect x="102" y="84" width="6" height="6" transform="rotate(0,105,87)"/><rect x="108" y="84" width="6" height="6" transform="rotate(0,111,87)"/><rect x="114" y="84" width="6" height="6" transform="rotate(0,117,87)"/><rect x="120" y="84" width="6" height="6" transform="rotate(0,123,87)"/><rect x="132" y="84" width="6" height="6" transform="rotate(0,135,87)"/><rect x="138" y="84" width="6" height="6" transform="rotate(0,141,87)"/><rect x="150" y="84" width="6" height="6" transform="rotate(0,153,87)"/><rect x="162" y="84" width="6" height="6" transform="rotate(0,165,87)"/><rect x="180" y="84" width="6" height="6" transform="rotate(0,183,87)"/><rect x="186" y="84" width="6" height="6" transform="rotate(0,189,87)"/><rect x="192" y="84" width="6" height="6" transform="rotate(0,195,87)"/><rect x="222" y="84" width="6" height="6" transform="rotate(0,225,87)"/><rect x="228" y="84" width="6" height="6" transform="rotate(0,231,87)"/><rect x="12" y="90" width="6" height="6" transform="rotate(0,15,93)"/><rect x="30" y="90" width="6" height="6" transform="rotate(0,33,93)"/><rect x="42" y="90" width="6" height="6" transform="rotate(0,45,93)"/><rect x="54" y="90" width="6" height="6" transform="rotate(0,57,93)"/><rect x="60" y="90" width="6" height="6" transform="rotate(0,63,93)"/><rect x="66" y="90" width="6" height="6" transform="rotate(0,69,93)"/><rect x="96" y="90" width="6" height="6" transform="rotate(0,99,93)"/><rect x="108" y="90" width="6" height="6" transform="rotate(0,111,93)"/><rect x="126" y="90" width="6" height="6" transform="rotate(0,129,93)"/><rect x="132" y="90" width="6" height="6" transform="rotate(0,135,93)"/><rect x="138" y="90" width="6" height="6" transform="rotate(0,141,93)"/><rect x="156" y="90" width="6" height="6" transform="rotate(0,159,93)"/><rect x="168" y="90" width="6" height="6" transform="rotate(0,171,93)"/><rect x="180" y="90" width="6" height="6" transform="rotate(0,183,93)"/><rect x="192" y="90" width="6" height="6" transform="rotate(0,195,93)"/><rect x="210" y="90" width="6" height="6" transform="rotate(0,213,93)"/><rect x="216" y="90" width="6" height="6" transform="rotate(0,219,93)"/><rect x="228" y="90" width="6" height="6" transform="rotate(0,231,93)"/><rect x="24" y="96" width="6" height="6" transform="rotate(0,27,99)"/><rect x="30" y="96" width="6" height="6" transform="rotate(0,33,99)"/><rect x="48" y="96" width="6" height="6" transform="rotate(0,51,99)"/><rect x="66" y="96" width="6" height="6" transform="rotate(0,69,99)"/><rect x="96" y="96" width="6" height="6" transform="rotate(0,99,99)"/><rect x="102" y="96" width="6" height="6" transform="rotate(0,105,99)"/><rect x="108" y="96" width="6" height="6" transform="rotate(0,111,99)"/><rect x="120" y="96" width="6" height="6" transform="rotate(0,123,99)"/><rect x="132" y="96" width="6" height="6" transform="rotate(0,135,99)"/><rect x="144" y="96" width="6" height="6" transform="rotate(0,147,99)"/><rect x="168" y="96" width="6" height="6" transform="rotate(0,171,99)"/><rect x="186" y="96" width="6" height="6" transform="rotate(0,189,99)"/><rect x="204" y="96" width="6" height="6" transform="rotate(0,207,99)"/><rect x="216" y="96" width="6" height="6" transform="rotate(0,219,99)"/><rect x="222" y="96" width="6" height="6" transform="rotate(0,225,99)"/><rect x="228" y="96" width="6" height="6" transform="rotate(0,231,99)"/><rect x="36" y="102" width="6" height="6" transform="rotate(0,39,105)"/><rect x="90" y="102" width="6" height="6" transform="rotate(0,93,105)"/><rect x="96" y="102" width="6" height="6" transform="rotate(0,99,105)"/><rect x="102" y="102" width="6" height="6" transform="rotate(0,105,105)"/><rect x="120" y="102" width="6" height="6" transform="rotate(0,123,105)"/><rect x="138" y="102" width="6" height="6" transform="rotate(0,141,105)"/><rect x="144" y="102" width="6" height="6" transform="rotate(0,147,105)"/><rect x="150" y="102" width="6" height="6" transform="rotate(0,153,105)"/><rect x="156" y="102" width="6" height="6" transform="rotate(0,159,105)"/><rect x="162" y="102" width="6" height="6" transform="rotate(0,165,105)"/><rect x="174" y="102" width="6" height="6" transform="rotate(0,177,105)"/><rect x="186" y="102" width="6" height="6" transform="rotate(0,189,105)"/><rect x="192" y="102" width="6" height="6" transform="rotate(0,195,105)"/><rect x="198" y="102" width="6" height="6" transform="rotate(0,201,105)"/><rect x="228" y="102" width="6" height="6" transform="rotate(0,231,105)"/><rect x="18" y="108" width="6" height="6" transform="rotate(0,21,111)"/><rect x="36" y="108" width="6" height="6" transform="rotate(0,39,111)"/><rect x="48" y="108" width="6" height="6" transform="rotate(0,51,111)"/><rect x="54" y="108" width="6" height="6" transform="rotate(0,57,111)"/><rect x="60" y="108" width="6" height="6" transform="rotate(0,63,111)"/><rect x="66" y="108" width="6" height="6" transform="rotate(0,69,111)"/><rect x="78" y="108" width="6" height="6" transform="rotate(0,81,111)"/><rect x="90" y="108" width="6" height="6" transform="rotate(0,93,111)"/><rect x="102" y="108" width="6" height="6" transform="rotate(0,105,111)"/><rect x="108" y="108" width="6" height="6" transform="rotate(0,111,111)"/><rect x="114" y="108" width="6" height="6" transform="rotate(0,117,111)"/><rect x="120" y="108" width="6" height="6" transform="rotate(0,123,111)"/><rect x="132" y="108" width="6" height="6" transform="rotate(0,135,111)"/><rect x="144" y="108" width="6" height="6" transform="rotate(0,147,111)"/><rect x="162" y="108" width="6" height="6" transform="rotate(0,165,111)"/><rect x="186" y="108" width="6" height="6" transform="rotate(0,189,111)"/><rect x="192" y="108" width="6" height="6" transform="rotate(0,195,111)"/><rect x="210" y="108" width="6" height="6" transform="rotate(0,213,111)"/><rect x="222" y="108" width="6" height="6" transform="rotate(0,225,111)"/><rect x="228" y="108" width="6" height="6" transform="rotate(0,231,111)"/><rect x="18" y="114" width="6" height="6" transform="rotate(0,21,117)"/><rect x="24" y="114" width="6" height="6" transform="rotate(0,27,117)"/><rect x="36" y="114" width="6" height="6" transform="rotate(0,39,117)"/><rect x="60" y="114" width="6" height="6" transform="rotate(0,63,117)"/><rect x="78" y="114" width="6" height="6" transform="rotate(0,81,117)"/><rect x="90" y="114" width="6" height="6" transform="rotate(0,93,117)"/><rect x="96" y="114" width="6" height="6" transform="rotate(0,99,117)"/><rect x="114" y="114" width="6" height="6" transform="rotate(0,117,117)"/><rect x="120" y="114" width="6" height="6" transform="rotate(0,123,117)"/><rect x="144" y="114" width="6" height="6" transform="rotate(0,147,117)"/><rect x="150" y="114" width="6" height="6" transform="rotate(0,153,117)"/><rect x="168" y="114" width="6" height="6" transform="rotate(0,171,117)"/><rect x="180" y="114" width="6" height="6" transform="rotate(0,183,117)"/><rect x="186" y="114" width="6" height="6" transform="rotate(0,189,117)"/><rect x="192" y="114" width="6" height="6" transform="rotate(0,195,117)"/><rect x="198" y="114" width="6" height="6" transform="rotate(0,201,117)"/><rect x="222" y="114" width="6" height="6" transform="rotate(0,225,117)"/><rect x="228" y="114" width="6" height="6" transform="rotate(0,231,117)"/><rect x="12" y="120" width="6" height="6" transform="rotate(0,15,123)"/><rect x="18" y="120" width="6" height="6" transform="rotate(0,21,123)"/><rect x="42" y="120" width="6" height="6" transform="rotate(0,45,123)"/><rect x="48" y="120" width="6" height="6" transform="rotate(0,51,123)"/><rect x="66" y="120" width="6" height="6" transform="rotate(0,69,123)"/><rect x="78" y="120" width="6" height="6" transform="rotate(0,81,123)"/><rect x="84" y="120" width="6" height="6" transform="rotate(0,87,123)"/><rect x="90" y="120" width="6" height="6" transform="rotate(0,93,123)"/><rect x="102" y="120" width="6" height="6" transform="rotate(0,105,123)"/><rect x="114" y="120" width="6" height="6" transform="rotate(0,117,123)"/><rect x="126" y="120" width="6" height="6" transform="rotate(0,129,123)"/><rect x="138" y="120" width="6" height="6" transform="rotate(0,141,123)"/><rect x="210" y="120" width="6" height="6" transform="rotate(0,213,123)"/><rect x="216" y="120" width="6" height="6" transform="rotate(0,219,123)"/><rect x="222" y="120" width="6" height="6" transform="rotate(0,225,123)"/><rect x="228" y="120" width="6" height="6" transform="rotate(0,231,123)"/><rect x="24" y="126" width="6" height="6" transform="rotate(0,27,129)"/><rect x="30" y="126" width="6" height="6" transform="rotate(0,33,129)"/><rect x="60" y="126" width="6" height="6" transform="rotate(0,63,129)"/><rect x="66" y="126" width="6" height="6" transform="rotate(0,69,129)"/><rect x="72" y="126" width="6" height="6" transform="rotate(0,75,129)"/><rect x="78" y="126" width="6" height="6" transform="rotate(0,81,129)"/><rect x="90" y="126" width="6" height="6" transform="rotate(0,93,129)"/><rect x="102" y="126" width="6" height="6" transform="rotate(0,105,129)"/><rect x="114" y="126" width="6" height="6" transform="rotate(0,117,129)"/><rect x="120" y="126" width="6" height="6" transform="rotate(0,123,129)"/><rect x="138" y="126" width="6" height="6" transform="rotate(0,141,129)"/><rect x="144" y="126" width="6" height="6" transform="rotate(0,147,129)"/><rect x="150" y="126" width="6" height="6" transform="rotate(0,153,129)"/><rect x="162" y="126" width="6" height="6" transform="rotate(0,165,129)"/><rect x="168" y="126" width="6" height="6" transform="rotate(0,171,129)"/><rect x="174" y="126" width="6" height="6" transform="rotate(0,177,129)"/><rect x="204" y="126" width="6" height="6" transform="rotate(0,207,129)"/><rect x="222" y="126" width="6" height="6" transform="rotate(0,225,129)"/><rect x="18" y="132" width="6" height="6" transform="rotate(0,21,135)"/><rect x="36" y="132" width="6" height="6" transform="rotate(0,39,135)"/><rect x="48" y="132" width="6" height="6" transform="rotate(0,51,135)"/><rect x="54" y="132" width="6" height="6" transform="rotate(0,57,135)"/><rect x="66" y="132" width="6" height="6" transform="rotate(0,69,135)"/><rect x="96" y="132" width="6" height="6" transform="rotate(0,99,135)"/><rect x="102" y="132" width="6" height="6" transform="rotate(0,105,135)"/><rect x="108" y="132" width="6" height="6" transform="rotate(0,111,135)"/><rect x="126" y="132" width="6" height="6" transform="rotate(0,129,135)"/><rect x="132" y="132" width="6" height="6" transform="rotate(0,135,135)"/><rect x="138" y="132" width="6" height="6" transform="rotate(0,141,135)"/><rect x="162" y="132" width="6" height="6" transform="rotate(0,165,135)"/><rect x="174" y="132" width="6" height="6" transform="rotate(0,177,135)"/><rect x="180" y="132" width="6" height="6" transform="rotate(0,183,135)"/><rect x="186" y="132" width="6" height="6" transform="rotate(0,189,135)"/><rect x="192" y="132" width="6" height="6" transform="rotate(0,195,135)"/><rect x="198" y="132" width="6" height="6" transform="rotate(0,201,135)"/><rect x="228" y="132" width="6" height="6" transform="rotate(0,231,135)"/><rect x="18" y="138" width="6" height="6" transform="rotate(0,21,141)"/><rect x="30" y="138" width="6" height="6" transform="rotate(0,33,141)"/><rect x="60" y="138" width="6" height="6" transform="rotate(0,63,141)"/><rect x="66" y="138" width="6" height="6" transform="rotate(0,69,141)"/><rect x="72" y="138" width="6" height="6" transform="rotate(0,75,141)"/><rect x="96" y="138" width="6" height="6" transform="rotate(0,99,141)"/><rect x="102" y="138" width="6" height="6" transform="rotate(0,105,141)"/><rect x="114" y="138" width="6" height="6" transform="rotate(0,117,141)"/><rect x="120" y="138" width="6" height="6" transform="rotate(0,123,141)"/><rect x="126" y="138" width="6" height="6" transform="rotate(0,129,141)"/><rect x="144" y="138" width="6" height="6" transform="rotate(0,147,141)"/><rect x="156" y="138" width="6" height="6" transform="rotate(0,159,141)"/><rect x="162" y="138" width="6" height="6" transform="rotate(0,165,141)"/><rect x="186" y="138" width="6" height="6" transform="rotate(0,189,141)"/><rect x="192" y="138" width="6" height="6" transform="rotate(0,195,141)"/><rect x="210" y="138" width="6" height="6" transform="rotate(0,213,141)"/><rect x="222" y="138" width="6" height="6" transform="rotate(0,225,141)"/><rect x="228" y="138" width="6" height="6" transform="rotate(0,231,141)"/><rect x="12" y="144" width="6" height="6" transform="rotate(0,15,147)"/><rect x="18" y="144" width="6" height="6" transform="rotate(0,21,147)"/><rect x="36" y="144" width="6" height="6" transform="rotate(0,39,147)"/><rect x="48" y="144" width="6" height="6" transform="rotate(0,51,147)"/><rect x="54" y="144" width="6" height="6" transform="rotate(0,57,147)"/><rect x="66" y="144" width="6" height="6" transform="rotate(0,69,147)"/><rect x="84" y="144" width="6" height="6" transform="rotate(0,87,147)"/><rect x="96" y="144" width="6" height="6" transform="rotate(0,99,147)"/><rect x="108" y="144" width="6" height="6" transform="rotate(0,111,147)"/><rect x="114" y="144" width="6" height="6" transform="rotate(0,117,147)"/><rect x="126" y="144" width="6" height="6" transform="rotate(0,129,147)"/><rect x="132" y="144" width="6" height="6" transform="rotate(0,135,147)"/><rect x="138" y="144" width="6" height="6" transform="rotate(0,141,147)"/><rect x="156" y="144" width="6" height="6" transform="rotate(0,159,147)"/><rect x="168" y="144" width="6" height="6" transform="rotate(0,171,147)"/><rect x="180" y="144" width="6" height="6" transform="rotate(0,183,147)"/><rect x="192" y="144" width="6" height="6" transform="rotate(0,195,147)"/><rect x="204" y="144" width="6" height="6" transform="rotate(0,207,147)"/><rect x="222" y="144" width="6" height="6" transform="rotate(0,225,147)"/><rect x="228" y="144" width="6" height="6" transform="rotate(0,231,147)"/><rect x="12" y="150" width="6" height="6" transform="rotate(0,15,153)"/><rect x="24" y="150" width="6" height="6" transform="rotate(0,27,153)"/><rect x="30" y="150" width="6" height="6" transform="rotate(0,33,153)"/><rect x="90" y="150" width="6" height="6" transform="rotate(0,93,153)"/><rect x="108" y="150" width="6" height="6" transform="rotate(0,111,153)"/><rect x="114" y="150" width="6" height="6" transform="rotate(0,117,153)"/><rect x="126" y="150" width="6" height="6" transform="rotate(0,129,153)"/><rect x="138" y="150" width="6" height="6" transform="rotate(0,141,153)"/><rect x="144" y="150" width="6" height="6" transform="rotate(0,147,153)"/><rect x="150" y="150" width="6" height="6" transform="rotate(0,153,153)"/><rect x="162" y="150" width="6" height="6" transform="rotate(0,165,153)"/><rect x="168" y="150" width="6" height="6" transform="rotate(0,171,153)"/><rect x="12" y="156" width="6" height="6" transform="rotate(0,15,159)"/><rect x="18" y="156" width="6" height="6" transform="rotate(0,21,159)"/><rect x="42" y="156" width="6" height="6" transform="rotate(0,45,159)"/><rect x="48" y="156" width="6" height="6" transform="rotate(0,51,159)"/><rect x="54" y="156" width="6" height="6" transform="rotate(0,57,159)"/><rect x="60" y="156" width="6" height="6" transform="rotate(0,63,159)"/><rect x="78" y="156" width="6" height="6" transform="rotate(0,81,159)"/><rect x="90" y="156" width="6" height="6" transform="rotate(0,93,159)"/><rect x="96" y="156" width="6" height="6" transform="rotate(0,99,159)"/><rect x="102" y="156" width="6" height="6" transform="rotate(0,105,159)"/><rect x="108" y="156" width="6" height="6" transform="rotate(0,111,159)"/><rect x="120" y="156" width="6" height="6" transform="rotate(0,123,159)"/><rect x="126" y="156" width="6" height="6" transform="rotate(0,129,159)"/><rect x="132" y="156" width="6" height="6" transform="rotate(0,135,159)"/><rect x="138" y="156" width="6" height="6" transform="rotate(0,141,159)"/><rect x="144" y="156" width="6" height="6" transform="rotate(0,147,159)"/><rect x="150" y="156" width="6" height="6" transform="rotate(0,153,159)"/><rect x="156" y="156" width="6" height="6" transform="rotate(0,159,159)"/><rect x="168" y="156" width="6" height="6" transform="rotate(0,171,159)"/><rect x="174" y="156" width="6" height="6" transform="rotate(0,177,159)"/><rect x="180" y="156" width="6" height="6" transform="rotate(0,183,159)"/><rect x="192" y="156" width="6" height="6" transform="rotate(0,195,159)"/><rect x="204" y="156" width="6" height="6" transform="rotate(0,207,159)"/><rect x="18" y="162" width="6" height="6" transform="rotate(0,21,165)"/><rect x="24" y="162" width="6" height="6" transform="rotate(0,27,165)"/><rect x="42" y="162" width="6" height="6" transform="rotate(0,45,165)"/><rect x="60" y="162" width="6" height="6" transform="rotate(0,63,165)"/><rect x="72" y="162" width="6" height="6" transform="rotate(0,75,165)"/><rect x="78" y="162" width="6" height="6" transform="rotate(0,81,165)"/><rect x="96" y="162" width="6" height="6" transform="rotate(0,99,165)"/><rect x="102" y="162" width="6" height="6" transform="rotate(0,105,165)"/><rect x="114" y="162" width="6" height="6" transform="rotate(0,117,165)"/><rect x="162" y="162" width="6" height="6" transform="rotate(0,165,165)"/><rect x="168" y="162" width="6" height="6" transform="rotate(0,171,165)"/><rect x="174" y="162" width="6" height="6" transform="rotate(0,177,165)"/><rect x="180" y="162" width="6" height="6" transform="rotate(0,183,165)"/><rect x="198" y="162" width="6" height="6" transform="rotate(0,201,165)"/><rect x="216" y="162" width="6" height="6" transform="rotate(0,219,165)"/><rect x="228" y="162" width="6" height="6" transform="rotate(0,231,165)"/><rect x="12" y="168" width="6" height="6" transform="rotate(0,15,171)"/><rect x="24" y="168" width="6" height="6" transform="rotate(0,27,171)"/><rect x="42" y="168" width="6" height="6" transform="rotate(0,45,171)"/><rect x="48" y="168" width="6" height="6" transform="rotate(0,51,171)"/><rect x="60" y="168" width="6" height="6" transform="rotate(0,63,171)"/><rect x="84" y="168" width="6" height="6" transform="rotate(0,87,171)"/><rect x="90" y="168" width="6" height="6" transform="rotate(0,93,171)"/><rect x="96" y="168" width="6" height="6" transform="rotate(0,99,171)"/><rect x="102" y="168" width="6" height="6" transform="rotate(0,105,171)"/><rect x="120" y="168" width="6" height="6" transform="rotate(0,123,171)"/><rect x="138" y="168" width="6" height="6" transform="rotate(0,141,171)"/><rect x="156" y="168" width="6" height="6" transform="rotate(0,159,171)"/><rect x="174" y="168" width="6" height="6" transform="rotate(0,177,171)"/><rect x="180" y="168" width="6" height="6" transform="rotate(0,183,171)"/><rect x="192" y="168" width="6" height="6" transform="rotate(0,195,171)"/><rect x="198" y="168" width="6" height="6" transform="rotate(0,201,171)"/><rect x="222" y="168" width="6" height="6" transform="rotate(0,225,171)"/><rect x="228" y="168" width="6" height="6" transform="rotate(0,231,171)"/><rect x="18" y="174" width="6" height="6" transform="rotate(0,21,177)"/><rect x="42" y="174" width="6" height="6" transform="rotate(0,45,177)"/><rect x="60" y="174" width="6" height="6" transform="rotate(0,63,177)"/><rect x="66" y="174" width="6" height="6" transform="rotate(0,69,177)"/><rect x="78" y="174" width="6" height="6" transform="rotate(0,81,177)"/><rect x="96" y="174" width="6" height="6" transform="rotate(0,99,177)"/><rect x="108" y="174" width="6" height="6" transform="rotate(0,111,177)"/><rect x="120" y="174" width="6" height="6" transform="rotate(0,123,177)"/><rect x="126" y="174" width="6" height="6" transform="rotate(0,129,177)"/><rect x="138" y="174" width="6" height="6" transform="rotate(0,141,177)"/><rect x="162" y="174" width="6" height="6" transform="rotate(0,165,177)"/><rect x="180" y="174" width="6" height="6" transform="rotate(0,183,177)"/><rect x="192" y="174" width="6" height="6" transform="rotate(0,195,177)"/><rect x="198" y="174" width="6" height="6" transform="rotate(0,201,177)"/><rect x="228" y="174" width="6" height="6" transform="rotate(0,231,177)"/><rect x="12" y="180" width="6" height="6" transform="rotate(0,15,183)"/><rect x="24" y="180" width="6" height="6" transform="rotate(0,27,183)"/><rect x="30" y="180" width="6" height="6" transform="rotate(0,33,183)"/><rect x="48" y="180" width="6" height="6" transform="rotate(0,51,183)"/><rect x="54" y="180" width="6" height="6" transform="rotate(0,57,183)"/><rect x="60" y="180" width="6" height="6" transform="rotate(0,63,183)"/><rect x="102" y="180" width="6" height="6" transform="rotate(0,105,183)"/><rect x="108" y="180" width="6" height="6" transform="rotate(0,111,183)"/><rect x="114" y="180" width="6" height="6" transform="rotate(0,117,183)"/><rect x="120" y="180" width="6" height="6" transform="rotate(0,123,183)"/><rect x="138" y="180" width="6" height="6" transform="rotate(0,141,183)"/><rect x="156" y="180" width="6" height="6" transform="rotate(0,159,183)"/><rect x="162" y="180" width="6" height="6" transform="rotate(0,165,183)"/><rect x="174" y="180" width="6" height="6" transform="rotate(0,177,183)"/><rect x="180" y="180" width="6" height="6" transform="rotate(0,183,183)"/><rect x="186" y="180" width="6" height="6" transform="rotate(0,189,183)"/><rect x="192" y="180" width="6" height="6" transform="rotate(0,195,183)"/><rect x="198" y="180" width="6" height="6" transform="rotate(0,201,183)"/><rect x="204" y="180" width="6" height="6" transform="rotate(0,207,183)"/><rect x="210" y="180" width="6" height="6" transform="rotate(0,213,183)"/><rect x="222" y="180" width="6" height="6" transform="rotate(0,225,183)"/><rect x="60" y="186" width="6" height="6" transform="rotate(0,63,189)"/><rect x="72" y="186" width="6" height="6" transform="rotate(0,75,189)"/><rect x="78" y="186" width="6" height="6" transform="rotate(0,81,189)"/><rect x="114" y="186" width="6" height="6" transform="rotate(0,117,189)"/><rect x="132" y="186" width="6" height="6" transform="rotate(0,135,189)"/><rect x="144" y="186" width="6" height="6" transform="rotate(0,147,189)"/><rect x="156" y="186" width="6" height="6" transform="rotate(0,159,189)"/><rect x="162" y="186" width="6" height="6" transform="rotate(0,165,189)"/><rect x="168" y="186" width="6" height="6" transform="rotate(0,171,189)"/><rect x="174" y="186" width="6" height="6" transform="rotate(0,177,189)"/><rect x="180" y="186" width="6" height="6" transform="rotate(0,183,189)"/><rect x="204" y="186" width="6" height="6" transform="rotate(0,207,189)"/><rect x="222" y="186" width="6" height="6" transform="rotate(0,225,189)"/><rect x="228" y="186" width="6" height="6" transform="rotate(0,231,189)"/><rect x="60" y="192" width="6" height="6" transform="rotate(0,63,195)"/><rect x="66" y="192" width="6" height="6" transform="rotate(0,69,195)"/><rect x="78" y="192" width="6" height="6" transform="rotate(0,81,195)"/><rect x="90" y="192" width="6" height="6" transform="rotate(0,93,195)"/><rect x="96" y="192" width="6" height="6" transform="rotate(0,99,195)"/><rect x="102" y="192" width="6" height="6" transform="rotate(0,105,195)"/><rect x="108" y="192" width="6" height="6" transform="rotate(0,111,195)"/><rect x="114" y="192" width="6" height="6" transform="rotate(0,117,195)"/><rect x="126" y="192" width="6" height="6" transform="rotate(0,129,195)"/><rect x="132" y="192" width="6" height="6" transform="rotate(0,135,195)"/><rect x="138" y="192" width="6" height="6" transform="rotate(0,141,195)"/><rect x="156" y="192" width="6" height="6" transform="rotate(0,159,195)"/><rect x="174" y="192" width="6" height="6" transform="rotate(0,177,195)"/><rect x="180" y="192" width="6" height="6" transform="rotate(0,183,195)"/><rect x="192" y="192" width="6" height="6" transform="rotate(0,195,195)"/><rect x="204" y="192" width="6" height="6" transform="rotate(0,207,195)"/><rect x="216" y="192" width="6" height="6" transform="rotate(0,219,195)"/><rect x="222" y="192" width="6" height="6" transform="rotate(0,225,195)"/><rect x="228" y="192" width="6" height="6" transform="rotate(0,231,195)"/><rect x="66" y="198" width="6" height="6" transform="rotate(0,69,201)"/><rect x="90" y="198" width="6" height="6" transform="rotate(0,93,201)"/><rect x="96" y="198" width="6" height="6" transform="rotate(0,99,201)"/><rect x="132" y="198" width="6" height="6" transform="rotate(0,135,201)"/><rect x="162" y="198" width="6" height="6" transform="rotate(0,165,201)"/><rect x="168" y="198" width="6" height="6" transform="rotate(0,171,201)"/><rect x="180" y="198" width="6" height="6" transform="rotate(0,183,201)"/><rect x="204" y="198" width="6" height="6" transform="rotate(0,207,201)"/><rect x="222" y="198" width="6" height="6" transform="rotate(0,225,201)"/><rect x="228" y="198" width="6" height="6" transform="rotate(0,231,201)"/><rect x="60" y="204" width="6" height="6" transform="rotate(0,63,207)"/><rect x="114" y="204" width="6" height="6" transform="rotate(0,117,207)"/><rect x="120" y="204" width="6" height="6" transform="rotate(0,123,207)"/><rect x="156" y="204" width="6" height="6" transform="rotate(0,159,207)"/><rect x="162" y="204" width="6" height="6" transform="rotate(0,165,207)"/><rect x="180" y="204" width="6" height="6" transform="rotate(0,183,207)"/><rect x="186" y="204" width="6" height="6" transform="rotate(0,189,207)"/><rect x="192" y="204" width="6" height="6" transform="rotate(0,195,207)"/><rect x="198" y="204" width="6" height="6" transform="rotate(0,201,207)"/><rect x="204" y="204" width="6" height="6" transform="rotate(0,207,207)"/><rect x="210" y="204" width="6" height="6" transform="rotate(0,213,207)"/><rect x="228" y="204" width="6" height="6" transform="rotate(0,231,207)"/><rect x="66" y="210" width="6" height="6" transform="rotate(0,69,213)"/><rect x="78" y="210" width="6" height="6" transform="rotate(0,81,213)"/><rect x="90" y="210" width="6" height="6" transform="rotate(0,93,213)"/><rect x="102" y="210" width="6" height="6" transform="rotate(0,105,213)"/><rect x="108" y="210" width="6" height="6" transform="rotate(0,111,213)"/><rect x="126" y="210" width="6" height="6" transform="rotate(0,129,213)"/><rect x="138" y="210" width="6" height="6" transform="rotate(0,141,213)"/><rect x="150" y="210" width="6" height="6" transform="rotate(0,153,213)"/><rect x="156" y="210" width="6" height="6" transform="rotate(0,159,213)"/><rect x="162" y="210" width="6" height="6" transform="rotate(0,165,213)"/><rect x="180" y="210" width="6" height="6" transform="rotate(0,183,213)"/><rect x="186" y="210" width="6" height="6" transform="rotate(0,189,213)"/><rect x="204" y="210" width="6" height="6" transform="rotate(0,207,213)"/><rect x="216" y="210" width="6" height="6" transform="rotate(0,219,213)"/><rect x="228" y="210" width="6" height="6" transform="rotate(0,231,213)"/><rect x="60" y="216" width="6" height="6" transform="rotate(0,63,219)"/><rect x="66" y="216" width="6" height="6" transform="rotate(0,69,219)"/><rect x="72" y="216" width="6" height="6" transform="rotate(0,75,219)"/><rect x="78" y="216" width="6" height="6" transform="rotate(0,81,219)"/><rect x="102" y="216" width="6" height="6" transform="rotate(0,105,219)"/><rect x="114" y="216" width="6" height="6" transform="rotate(0,117,219)"/><rect x="138" y="216" width="6" height="6" transform="rotate(0,141,219)"/><rect x="144" y="216" width="6" height="6" transform="rotate(0,147,219)"/><rect x="150" y="216" width="6" height="6" transform="rotate(0,153,219)"/><rect x="156" y="216" width="6" height="6" transform="rotate(0,159,219)"/><rect x="180" y="216" width="6" height="6" transform="rotate(0,183,219)"/><rect x="186" y="216" width="6" height="6" transform="rotate(0,189,219)"/><rect x="198" y="216" width="6" height="6" transform="rotate(0,201,219)"/><rect x="204" y="216" width="6" height="6" transform="rotate(0,207,219)"/><rect x="228" y="216" width="6" height="6" transform="rotate(0,231,219)"/><rect x="60" y="222" width="6" height="6" transform="rotate(0,63,225)"/><rect x="66" y="222" width="6" height="6" transform="rotate(0,69,225)"/><rect x="78" y="222" width="6" height="6" transform="rotate(0,81,225)"/><rect x="96" y="222" width="6" height="6" transform="rotate(0,99,225)"/><rect x="102" y="222" width="6" height="6" transform="rotate(0,105,225)"/><rect x="114" y="222" width="6" height="6" transform="rotate(0,117,225)"/><rect x="120" y="222" width="6" height="6" transform="rotate(0,123,225)"/><rect x="126" y="222" width="6" height="6" transform="rotate(0,129,225)"/><rect x="138" y="222" width="6" height="6" transform="rotate(0,141,225)"/><rect x="144" y="222" width="6" height="6" transform="rotate(0,147,225)"/><rect x="156" y="222" width="6" height="6" transform="rotate(0,159,225)"/><rect x="162" y="222" width="6" height="6" transform="rotate(0,165,225)"/><rect x="168" y="222" width="6" height="6" transform="rotate(0,171,225)"/><rect x="174" y="222" width="6" height="6" transform="rotate(0,177,225)"/><rect x="180" y="222" width="6" height="6" transform="rotate(0,183,225)"/><rect x="204" y="222" width="6" height="6" transform="rotate(0,207,225)"/><rect x="222" y="222" width="6" height="6" transform="rotate(0,225,225)"/><rect x="84" y="228" width="6" height="6" transform="rotate(0,87,231)"/><rect x="90" y="228" width="6" height="6" transform="rotate(0,93,231)"/><rect x="102" y="228" width="6" height="6" transform="rotate(0,105,231)"/><rect x="114" y="228" width="6" height="6" transform="rotate(0,117,231)"/><rect x="132" y="228" width="6" height="6" transform="rotate(0,135,231)"/><rect x="138" y="228" width="6" height="6" transform="rotate(0,141,231)"/><rect x="150" y="228" width="6" height="6" transform="rotate(0,153,231)"/><rect x="162" y="228" width="6" height="6" transform="rotate(0,165,231)"/><rect x="174" y="228" width="6" height="6" transform="rotate(0,177,231)"/><rect x="180" y="228" width="6" height="6" transform="rotate(0,183,231)"/><rect x="186" y="228" width="6" height="6" transform="rotate(0,189,231)"/><rect x="198" y="228" width="6" height="6" transform="rotate(0,201,231)"/><rect x="222" y="228" width="6" height="6" transform="rotate(0,225,231)"/><rect x="228" y="228" width="6" height="6" transform="rotate(0,231,231)"/></g></svg>