<?xml version="1.0" encoding="UTF-8"?>
<svg xmlns="http://www.w3.org/2000/svg" xmlns:xlink="http://www.w3.org/1999/xlink" width="58.509" height="57.091" viewBox="0 0 58.509 57.091">
<defs>
<clipPath id="clip-0">
<path clip-rule="nonzero" d="M 0 0 L 58.507812 0 L 58.507812 57.089844 L 0 57.089844 Z M 0 0 "/>
</clipPath>
<clipPath id="clip-1">
<path clip-rule="nonzero" d="M 55 27 L 58.507812 27 L 58.507812 30 L 55 30 Z M 55 27 "/>
</clipPath>
<clipPath id="clip-2">
<path clip-rule="nonzero" d="M 49 21 L 58.507812 21 L 58.507812 36 L 49 36 Z M 49 21 "/>
</clipPath>
<clipPath id="clip-3">
<path clip-rule="nonzero" d="M 7 46 L 22 46 L 22 57.089844 L 7 57.089844 Z M 7 46 "/>
</clipPath>
</defs>
<g clip-path="url(#clip-0)">
<path fill="none" stroke-width="0.3985" stroke-linecap="butt" stroke-linejoin="miter" stroke="rgb(0%, 0%, 0%)" stroke-opacity="1" stroke-miterlimit="10" d="M 28.348531 -0.001875 C 28.348531 15.654375 15.657125 28.345781 0.000875 28.345781 C -15.655375 28.345781 -28.346781 15.654375 -28.346781 -0.001875 C -28.346781 -15.654219 -15.655375 -28.345625 0.000875 -28.345625 C 15.657125 -28.345625 28.348531 -15.654219 28.348531 -0.001875 Z M 28.348531 -0.001875 " transform="matrix(1, 0, 0, -1, 28.546, 28.545)"/>
</g>
<g clip-path="url(#clip-1)">
<path fill-rule="nonzero" fill="rgb(0%, 0%, 0%)" fill-opacity="1" d="M 58.308594 28.546875 C 58.308594 27.761719 57.675781 27.128906 56.894531 27.128906 C 56.109375 27.128906 55.476562 27.761719 55.476562 28.546875 C 55.476562 29.328125 56.109375 29.960938 56.894531 29.960938 C 57.675781 29.960938 58.308594 29.328125 58.308594 28.546875 Z M 58.308594 28.546875 "/>
</g>
<g clip-path="url(#clip-2)">
<path fill="none" stroke-width="0.3985" stroke-linecap="butt" stroke-linejoin="miter" stroke="rgb(0%, 0%, 0%)" stroke-opacity="1" stroke-miterlimit="10" d="M 29.762594 -0.001875 C 29.762594 0.783281 29.129781 1.416094 28.348531 1.416094 C 27.563375 1.416094 26.930563 0.783281 26.930563 -0.001875 C 26.930563 -0.783125 27.563375 -1.415937 28.348531 -1.415937 C 29.129781 -1.415937 29.762594 -0.783125 29.762594 -0.001875 Z M 29.762594 -0.001875 " transform="matrix(1, 0, 0, -1, 28.546, 28.545)"/>
</g>
<path fill-rule="nonzero" fill="rgb(0%, 0%, 0%)" fill-opacity="1" stroke-width="0.3985" stroke-linecap="butt" stroke-linejoin="miter" stroke="rgb(0%, 0%, 0%)" stroke-opacity="1" stroke-miterlimit="10" d="M -12.756937 24.548906 C -12.756937 25.330156 -13.38975 25.966875 -14.174906 25.966875 C -14.956156 25.966875 -15.588969 25.330156 -15.588969 24.548906 C -15.588969 23.767656 -14.956156 23.130938 -14.174906 23.130938 C -13.38975 23.130938 -12.756937 23.767656 -12.756937 24.548906 Z M -12.756937 24.548906 " transform="matrix(1, 0, 0, -1, 28.546, 28.545)"/>
<path fill-rule="nonzero" fill="rgb(0%, 0%, 0%)" fill-opacity="1" d="M 15.789062 53.09375 C 15.789062 52.3125 15.15625 51.675781 14.371094 51.675781 C 13.589844 51.675781 12.957031 52.3125 12.957031 53.09375 C 12.957031 53.875 13.589844 54.511719 14.371094 54.511719 C 15.15625 54.511719 15.789062 53.875 15.789062 53.09375 Z M 15.789062 53.09375 "/>
<g clip-path="url(#clip-3)">
<path fill="none" stroke-width="0.3985" stroke-linecap="butt" stroke-linejoin="miter" stroke="rgb(0%, 0%, 0%)" stroke-opacity="1" stroke-miterlimit="10" d="M -12.756937 -24.54875 C -12.756937 -23.7675 -13.38975 -23.130781 -14.174906 -23.130781 C -14.956156 -23.130781 -15.588969 -23.7675 -15.588969 -24.54875 C -15.588969 -25.33 -14.956156 -25.966719 -14.174906 -25.966719 C -13.38975 -25.966719 -12.756937 -25.33 -12.756937 -24.54875 Z M -12.756937 -24.54875 " transform="matrix(1, 0, 0, -1, 28.546, 28.545)"/>
</g>
</svg>
